HIERARCHY
ROOT Root
{
	OFFSET 0.00 0.00 0.00
	CHANNELS 6 Xposition Yposition Zposition Xrotation Yrotation Zrotation
	JOINT L_Femur
	{
		OFFSET 2.78527 0.00000 0.00000
		CHANNELS 3 Xrotation Yrotation Zrotation
		JOINT L_Tibia
		{
			OFFSET 0.00000 -16.41095 0.00000
			CHANNELS 3 Xrotation Yrotation Zrotation
			JOINT L_Foot
			{
				OFFSET 0.00000 -14.21163 0.00000
				CHANNELS 3 Xrotation Yrotation Zrotation
				JOINT L_Toe
				{
					OFFSET 0.00000 -1.60827 6.00215
					CHANNELS 3 Xrotation Yrotation Zrotation
					End Site
					{
						OFFSET 0.00000 0.00000 2.95275
					}
				}
			}
		}
	}
	JOINT R_Femur
	{
		OFFSET -2.78527 0.00000 0.00000
		CHANNELS 3 Xrotation Yrotation Zrotation
		JOINT R_Tibia
		{
			OFFSET 0.00000 -16.41095 0.00000
			CHANNELS 3 Xrotation Yrotation Zrotation
			JOINT R_Foot
			{
				OFFSET 0.00000 -14.21163 0.00000
				CHANNELS 3 Xrotation Yrotation Zrotation
				JOINT R_Toe
				{
					OFFSET 0.00000 -1.60827 6.00215
					CHANNELS 3 Xrotation Yrotation Zrotation
					End Site
					{
						OFFSET 0.00000 0.00000 2.95275
					}
				}
			}
		}
	}
	JOINT LowerBack
	{
		OFFSET 0.00000 0.03937 0.00000
		CHANNELS 3 Xrotation Yrotation Zrotation
		JOINT Thorax
		{
			OFFSET 0.00000 7.01329 0.00000
			CHANNELS 3 Xrotation Yrotation Zrotation
			JOINT Neck
			{
				OFFSET 0.00000 7.25825 0.00000
				CHANNELS 3 Xrotation Yrotation Zrotation
				JOINT Head
				{
					OFFSET 0.00000 5.63334 0.00000
					CHANNELS 3 Xrotation Yrotation Zrotation
					End Site
					{
						OFFSET 0.00000 4.52755 0.00000
					}
				}
			}
			JOINT L_Collar
			{
				OFFSET 0.00000 7.25825 0.00000
				CHANNELS 3 Xrotation Yrotation Zrotation
				JOINT L_Humerus
				{
					OFFSET 6.91821 -0.00003 0.00000
					CHANNELS 3 Xrotation Yrotation Zrotation
					JOINT L_Elbow
					{
						OFFSET 10.34006 -0.00004 0.00000
						CHANNELS 3 Xrotation Yrotation Zrotation
						JOINT L_Wrist
						{
							OFFSET 7.25554 -0.00003 0.00000
							CHANNELS 3 Xrotation Yrotation Zrotation
							JOINT L_Thumb
							{
								OFFSET 0.00000 0.00000 0.00000
								CHANNELS 3 Xrotation Yrotation Zrotation
								End Site
								{
									OFFSET 0.00000 0.00000 3.93700
								}
							}
							JOINT L_Wrist_End
							{
								OFFSET 3.93700 -0.00001 0.00000
								CHANNELS 3 Xrotation Yrotation Zrotation
							}
						}
					}
				}
			}
			JOINT R_Collar
			{
				OFFSET 0.00000 7.25825 0.00000
				CHANNELS 3 Xrotation Yrotation Zrotation
				JOINT R_Humerus
				{
					OFFSET -6.91821 -0.00003 0.00000
					CHANNELS 3 Xrotation Yrotation Zrotation
					JOINT R_Elbow
					{
						OFFSET -10.34006 -0.00004 0.00000
						CHANNELS 3 Xrotation Yrotation Zrotation
						JOINT R_Wrist
						{
							OFFSET -7.25554 -0.00003 0.00000
							CHANNELS 3 Xrotation Yrotation Zrotation
							JOINT R_Thumb
							{
								OFFSET 0.00000 0.00000 0.00000
								CHANNELS 3 Xrotation Yrotation Zrotation
								End Site
								{
									OFFSET 0.00000 0.00000 3.93700
								}
							}
							JOINT R_Wrist_End
							{
								OFFSET -5.39369 -0.00002 0.00000
								CHANNELS 3 Xrotation Yrotation Zrotation
							}
						}
					}
				}
			}
		}
	}
}
MOTION
Frames: 19
Frame Time: 0.033332
 -21.0607 32.9089 -4.0753 5.7081 -12.6450 -1.1427 -0.6191 32.3171 7.4734 2.5267 0.0000 0.0000 -8.6246 -6.4282 -1.0193 -6.6956 0.0000 -0.0000 -4.5411 4.7586 -3.7053 3.8533 -0.0000 0.0000 -6.9652 8.5092 6.2304 -10.0218 0.0000 -0.0000 -3.4105 -1.2886 -9.3231 0.5567 -0.9364 11.2973 0.5213 -38.6958 4.2938 -2.3164 49.3091 5.4619 -4.2931 31.4722 18.9025 -27.2830 1.3494 -25.9067 -0.0001 -18.2555 -0.0000 -8.4437 5.0541 0.0010 -0.0000 0.0000 -0.0000 -0.0000 0.0000 -0.0000 -0.9431 -10.4969 -23.1247 -50.3205 -11.1309 33.8324 -0.0000 10.0770 0.0000 0.6605 2.9482 -15.2765 -0.0000 0.0000 -0.0000 -0.0000 0.0000 -0.0000
 -21.0617 32.9087 -4.0728 5.7132 -12.6031 -1.1350 -0.6209 32.3248 7.4683 2.5219 -0.0000 0.0000 -8.6333 -6.4817 -1.0401 -6.5856 0.0000 0.0000 -4.5438 4.7156 -3.7165 3.8710 -0.0000 0.0000 -6.9725 8.5086 6.2996 -10.0622 0.0000 0.0000 -3.3979 -1.2813 -9.3330 0.5656 -0.9264 11.2948 0.4992 -38.7354 4.2722 -2.3723 49.3467 5.6300 -4.3243 31.4759 18.9460 -27.2670 1.2975 -25.8219 -0.0001 -18.2182 -0.0000 -8.3661 5.0586 -0.0631 -0.0000 0.0000 -0.0000 -0.0000 0.0000 -0.0000 -0.9501 -10.4767 -23.1436 -50.3081 -11.0911 33.8141 -0.0000 10.1103 0.0000 0.7526 2.8573 -15.2591 -0.0000 0.0000 -0.0000 -0.0000 0.0000 -0.0000
 -21.0613 32.9091 -4.0643 5.7360 -12.5213 -1.1261 -0.6134 32.3051 7.4496 2.4773 -0.0000 -0.0000 -8.6143 -6.5264 -1.0275 -6.6577 0.0000 0.0000 -4.5144 4.6352 -3.7341 3.8112 -0.0000 0.0000 -6.9547 8.5174 6.3087 -10.0827 0.0000 0.0000 -3.4052 -1.2780 -9.3411 0.5524 -0.9250 11.2984 0.5367 -38.7876 4.2780 -2.4123 49.4025 5.7652 -4.3046 31.4854 18.9416 -27.3475 1.2668 -25.7105 -0.0001 -18.2244 -0.0000 -8.3586 4.9752 -0.0988 -0.0000 0.0000 -0.0000 -0.0000 0.0000 -0.0000 -0.9507 -10.4778 -23.1263 -50.3154 -11.0719 33.7641 -0.0000 10.2303 0.0000 0.7762 2.8880 -15.2996 -0.0000 0.0000 -0.0000 -0.0000 0.0000 -0.0000
 -21.0606 32.9098 -4.0531 5.7555 -12.4316 -1.1206 -0.6203 32.2984 7.4427 2.4677 0.0000 0.0000 -8.6103 -6.6101 -0.9751 -6.6414 0.0000 0.0000 -4.4798 4.5498 -3.7532 3.7588 -0.0000 0.0000 -6.9564 8.5156 6.3125 -10.0921 0.0000 -0.0000 -3.4091 -1.2791 -9.3401 0.5385 -0.9276 11.3059 0.5674 -38.8244 4.2909 -2.3991 49.4584 5.8372 -4.3416 31.4890 18.9610 -27.3767 1.2413 -25.6372 -0.0001 -18.2730 -0.0000 -8.4508 4.9073 -0.1012 -0.0000 0.0000 -0.0000 -0.0000 0.0000 -0.0000 -0.9594 -10.4819 -23.1341 -50.3267 -11.0417 33.7457 -0.0000 10.2769 0.0000 0.7536 2.8770 -15.2898 -0.0000 -0.0000 0.0000 -0.0000 -0.0000 0.0000
 -21.0607 32.9074 -4.0405 5.7744 -12.3333 -1.1167 -0.6107 32.2071 7.4312 2.4519 0.0000 0.0000 -8.6098 -6.6174 -0.9940 -6.6280 0.0000 -0.0000 -4.4521 4.5323 -3.7656 3.7479 -0.0000 0.0000 -6.9744 8.4288 6.3524 -10.0917 0.0000 -0.0000 -3.4211 -1.2800 -9.3382 0.5318 -0.9313 11.3121 0.5997 -38.8697 4.3204 -2.3750 49.5236 5.8739 -4.2954 31.4968 18.9497 -27.4435 1.2115 -25.5796 -0.0001 -18.2887 -0.0000 -8.3542 4.9407 -0.1568 -0.0000 0.0000 -0.0000 -0.0000 0.0000 -0.0000 -0.9323 -10.4845 -23.1501 -50.2695 -10.9524 33.7295 -0.0000 10.2699 0.0000 0.9374 2.7638 -15.2659 -0.0000 0.0000 -0.0000 -0.0000 0.0000 -0.0000
 -21.0578 32.9080 -4.0247 5.7996 -12.2336 -1.1126 -0.5919 32.1494 7.4072 2.4155 0.0000 0.0000 -8.6064 -6.6438 -0.9402 -6.6125 0.0000 -0.0000 -4.4132 4.5866 -3.7815 3.7226 -0.0000 0.0000 -6.9911 8.2763 6.3310 -10.0733 0.0000 -0.0000 -3.4428 -1.2767 -9.3333 0.5369 -0.9321 11.3190 0.6311 -38.9159 4.3186 -2.4706 49.5909 6.0476 -4.3013 31.4940 18.9567 -27.4513 1.1662 -25.5453 -0.0001 -18.2595 -0.0000 -8.3827 4.9388 -0.1679 -0.0000 0.0000 -0.0000 -0.0000 0.0000 -0.0000 -0.9199 -10.4947 -23.1407 -50.2533 -10.8986 33.7242 -0.0000 10.2716 0.0000 0.9647 2.7731 -15.3419 -0.0000 -0.0000 0.0000 -0.0000 -0.0000 0.0000
 -21.0567 32.9085 -4.0050 5.8219 -12.1059 -1.1111 -0.5800 32.1022 7.3975 2.3838 0.0000 0.0000 -8.5957 -6.7203 -0.9285 -6.6431 0.0000 -0.0000 -4.3734 4.4801 -3.7962 3.6998 -0.0000 0.0000 -7.0190 8.2539 6.3080 -10.0730 0.0000 0.0000 -3.4645 -1.2794 -9.3351 0.5312 -0.9394 11.3182 0.6628 -38.9929 4.3336 -2.5202 49.6437 6.1905 -4.3430 31.4693 18.9863 -27.3643 1.0452 -25.4883 -0.0001 -18.1543 -0.0000 -8.3783 4.9483 -0.2440 -0.0000 0.0000 -0.0000 -0.0000 0.0000 -0.0000 -0.9291 -10.5052 -23.1344 -50.2296 -10.8837 33.7382 -0.0000 10.2556 0.0000 0.9907 2.7547 -15.3438 -0.0000 -0.0000 0.0000 -0.0000 -0.0000 0.0000
 -21.0572 32.9080 -3.9863 5.8433 -12.0074 -1.1111 -0.5614 32.0293 7.3877 2.3610 -0.0000 0.0000 -8.5876 -6.7460 -0.8930 -6.6259 0.0000 -0.0000 -4.3411 4.4044 -3.8082 3.6887 -0.0000 0.0000 -7.0367 8.2307 6.3347 -10.0706 0.0000 0.0000 -3.4853 -1.2850 -9.3340 0.5218 -0.9498 11.3158 0.6478 -39.0476 4.3421 -2.4779 49.7167 6.2280 -4.3578 31.4687 19.0190 -27.3847 0.9865 -25.4267 -0.0001 -18.0547 -0.0000 -8.3602 4.9418 -0.2779 -0.0000 0.0000 -0.0000 -0.0000 0.0000 -0.0000 -0.9294 -10.5089 -23.1425 -50.2538 -10.8536 33.7778 -0.0000 10.1729 0.0000 1.0763 2.6947 -15.2891 -0.0000 -0.0000 0.0000 -0.0000 -0.0000 0.0000
 -21.0550 32.9068 -3.9630 5.8670 -11.9319 -1.1164 -0.5043 31.9966 7.3605 2.2752 -0.0000 -0.0000 -8.5777 -6.7692 -0.8947 -6.6395 0.0000 -0.0000 -4.3085 4.3762 -3.8156 3.6857 -0.0000 -0.0000 -7.0839 8.1828 6.3096 -10.0542 0.0000 -0.0000 -3.5101 -1.2856 -9.3248 0.4964 -0.9568 11.3248 0.6846 -39.1004 4.3519 -2.5557 49.7787 6.2710 -4.4184 31.4658 19.0711 -27.3719 0.9241 -25.3413 -0.0001 -17.9551 -0.0000 -8.4666 4.9371 -0.3500 -0.0000 0.0000 -0.0000 -0.0000 0.0000 -0.0000 -0.9695 -10.5087 -23.1441 -50.3220 -10.8278 33.8057 -0.0000 10.1007 0.0000 1.0644 2.6874 -15.2357 -0.0000 0.0000 -0.0000 -0.0000 0.0000 -0.0000
 -21.0550 32.9057 -3.9390 5.8847 -11.8530 -1.1245 -0.4698 31.9411 7.3529 2.2409 0.0000 0.0000 -8.5807 -6.7781 -0.8759 -6.5815 0.0000 0.0000 -4.2612 4.3542 -3.8200 3.6621 -0.0000 0.0000 -7.1060 8.1280 6.3102 -10.0340 0.0000 -0.0000 -3.5282 -1.2816 -9.3220 0.4763 -0.9577 11.3312 0.7030 -39.1569 4.3662 -2.6288 49.8450 6.2884 -4.4759 31.4528 19.1445 -27.2492 0.7801 -25.2107 -0.0001 -17.8110 -0.0000 -8.4716 4.9352 -0.4100 -0.0000 0.0000 -0.0000 -0.0000 0.0000 -0.0000 -0.9664 -10.5188 -23.1522 -50.2548 -10.7577 33.8120 -0.0000 10.0818 0.0000 1.1466 2.6499 -15.1943 -0.0000 -0.0000 0.0000 -0.0000 -0.0000 0.0000
 -21.0536 32.9060 -3.9147 5.9073 -11.7832 -1.1387 -0.4177 31.8369 7.3371 2.1779 0.0000 0.0000 -8.5492 -6.7350 -0.8340 -6.6350 -0.0000 0.0000 -4.1986 4.2878 -3.8199 3.5922 -0.0000 -0.0000 -7.0849 8.1237 6.2973 -10.0735 0.0000 -0.0000 -3.5462 -1.2771 -9.3151 0.4534 -0.9585 11.3426 0.7599 -39.2122 4.4029 -2.7613 49.9204 6.2755 -4.4965 31.4520 19.1933 -27.0533 0.6058 -25.0328 -0.0001 -17.7246 -0.0000 -8.5065 4.9514 -0.4005 -0.0000 0.0000 -0.0000 -0.0000 0.0000 -0.0000 -0.9610 -10.5369 -23.1403 -50.3298 -10.7332 33.7569 -0.0000 10.0740 0.0000 1.0949 2.6651 -15.1674 -0.0000 0.0000 -0.0000 -0.0000 0.0000 -0.0000
 -21.0518 32.9073 -3.8895 5.9304 -11.7092 -1.1504 -0.3810 31.8446 7.3297 2.1209 0.0000 0.0000 -8.5380 -6.8069 -0.7989 -6.6155 0.0000 0.0000 -4.1357 4.2562 -3.8223 3.5305 0.0000 0.0000 -7.0765 8.0737 6.2980 -10.0659 0.0000 0.0000 -3.5579 -1.2735 -9.3099 0.4321 -0.9589 11.3479 0.7561 -39.2440 4.3971 -2.8357 50.0112 6.3090 -4.5338 31.4622 19.2509 -27.0381 0.5131 -24.8565 -0.0001 -17.6694 -0.0000 -8.5553 4.9700 -0.4572 -0.0000 0.0000 -0.0000 -0.0000 0.0000 -0.0000 -0.9786 -10.5561 -23.1411 -50.3445 -10.7055 33.6718 -0.0000 10.0754 0.0000 1.0599 2.7009 -15.1416 -0.0000 -0.0000 0.0000 -0.0000 -0.0000 0.0000
 -21.0484 32.9070 -3.8653 5.9478 -11.6222 -1.1643 -0.3538 31.8081 7.3276 2.0860 0.0000 0.0000 -8.5325 -6.8458 -0.7737 -6.5996 0.0000 -0.0000 -4.0836 4.1947 -3.8278 3.4909 -0.0000 0.0000 -7.0811 8.0580 6.2658 -10.0636 0.0000 -0.0000 -3.5566 -1.2724 -9.2973 0.4077 -0.9600 11.3517 0.7895 -39.2812 4.4160 -2.9310 50.0983 6.3127 -4.6112 31.4578 19.3020 -27.0273 0.4166 -24.6542 -0.0001 -17.6567 -0.0000 -8.5333 4.9603 -0.5112 -0.0000 0.0000 -0.0000 -0.0000 0.0000 -0.0000 -1.0209 -10.5741 -23.1630 -50.3718 -10.6756 33.5514 -0.0000 10.0328 0.0000 1.0776 2.7014 -15.1507 -0.0000 0.0000 -0.0000 -0.0000 0.0000 -0.0000
 -21.0470 32.9078 -3.8430 5.9700 -11.5617 -1.1738 -0.3246 31.7856 7.3218 2.0444 0.0000 0.0000 -8.5128 -6.8897 -0.7418 -6.5690 0.0000 -0.0000 -4.0456 4.1511 -3.8318 3.4606 0.0000 0.0000 -7.0763 8.0367 6.2627 -10.0431 0.0000 -0.0000 -3.5538 -1.2752 -9.2915 0.3844 -0.9643 11.3510 0.7926 -39.3178 4.4194 -2.9400 50.1697 6.2966 -4.6435 31.4835 19.3410 -27.0872 0.3815 -24.4688 -0.0001 -17.7382 -0.0000 -8.3854 4.9764 -0.5288 -0.0000 0.0000 -0.0000 -0.0000 0.0000 -0.0000 -1.0350 -10.6026 -23.1788 -50.4380 -10.6769 33.4564 -0.0000 10.0865 0.0000 1.0417 2.6988 -15.1727 -0.0000 -0.0000 0.0000 -0.0000 -0.0000 0.0000
 -21.0426 32.9090 -3.8232 5.9842 -11.4858 -1.1857 -0.3218 31.7216 7.3251 2.0601 -0.0000 0.0000 -8.5234 -6.8889 -0.7001 -6.6567 0.0000 -0.0000 -4.0077 4.1013 -3.8366 3.4394 -0.0000 -0.0000 -7.0708 8.0170 6.2360 -10.0891 0.0000 -0.0000 -3.5449 -1.2855 -9.2791 0.3686 -0.9750 11.3469 0.8571 -39.3721 4.4572 -2.9466 50.2276 6.1949 -4.6666 31.4819 19.3589 -26.9400 0.2966 -24.2642 -0.0001 -17.8425 -0.0000 -8.3665 4.9248 -0.5723 -0.0000 0.0000 -0.0000 -0.0000 0.0000 -0.0000 -1.0474 -10.6275 -23.2053 -50.4714 -10.6669 33.3726 -0.0000 10.1138 0.0000 0.9625 2.7290 -15.1780 -0.0000 -0.0000 0.0000 -0.0000 -0.0000 0.0000
 -21.0391 32.9083 -3.8087 5.9903 -11.4608 -1.1910 -0.3273 31.7137 7.3349 2.1058 0.0000 -0.0000 -8.5658 -6.9095 -0.6809 -6.6250 0.0000 0.0000 -4.0078 4.0992 -3.8415 3.4883 0.0000 0.0000 -7.1139 7.9956 6.2599 -10.0760 0.0000 0.0000 -3.5310 -1.2809 -9.2806 0.3778 -0.9677 11.3418 0.8668 -39.3614 4.4499 -2.9248 50.2701 6.1769 -4.6673 31.5068 19.3924 -27.0673 0.3191 -24.1614 -0.0001 -17.8840 -0.0000 -8.3403 4.8736 -0.5956 -0.0000 0.0000 -0.0000 -0.0000 0.0000 -0.0000 -1.0499 -10.6414 -23.2341 -50.5395 -10.6708 33.2991 -0.0000 10.1162 0.0000 1.0559 2.6869 -15.1623 -0.0000 -0.0000 0.0000 -0.0000 -0.0000 0.0000
 -21.0339 32.9071 -3.7942 5.9953 -11.4290 -1.2014 -0.3166 31.6870 7.3321 2.1203 0.0000 0.0000 -8.5813 -6.9108 -0.6469 -6.5823 0.0000 -0.0000 -4.0036 4.0427 -3.8486 3.5272 -0.0000 0.0000 -7.1373 8.0152 6.2503 -10.0289 0.0000 -0.0000 -3.5311 -1.2772 -9.2710 0.3800 -0.9649 11.3409 0.9278 -39.3896 4.4834 -2.7443 50.3072 5.9648 -4.6574 31.5009 19.3995 -27.0466 0.2682 -24.0708 -0.0001 -17.8920 -0.0000 -8.3700 4.8945 -0.5944 -0.0000 0.0000 -0.0000 -0.0000 0.0000 -0.0000 -1.0470 -10.6330 -23.2555 -50.5195 -10.6103 33.2198 -0.0000 10.0868 0.0000 1.0866 2.6765 -15.1234 -0.0000 -0.0000 0.0000 -0.0000 -0.0000 0.0000
 -21.0282 32.9077 -3.7827 6.0008 -11.4149 -1.2083 -0.3111 31.6929 7.3317 2.1413 -0.0000 -0.0000 -8.6208 -6.9289 -0.6609 -6.5794 0.0000 0.0000 -3.9924 4.0131 -3.8561 3.5391 0.0000 0.0000 -7.1573 8.0285 6.2453 -10.0575 0.0000 0.0000 -3.5347 -1.2728 -9.2651 0.3828 -0.9616 11.3422 1.0004 -39.3649 4.4958 -2.5873 50.3536 5.8214 -4.6170 31.5008 19.3902 -26.8882 0.1920 -24.0718 -0.0001 -17.9615 -0.0000 -8.3641 4.9039 -0.5064 -0.0000 0.0000 -0.0000 -0.0000 0.0000 -0.0000 -1.0674 -10.6241 -23.2572 -50.5522 -10.5850 33.1711 -0.0000 10.1299 0.0000 1.1070 2.6626 -15.1698 -0.0000 -0.0000 0.0000 -0.0000 -0.0000 0.0000
 -21.0189 32.9062 -3.7708 6.0013 -11.3630 -1.2178 -0.3110 31.6541 7.3317 2.1771 -0.0000 0.0000 -8.6519 -6.9469 -0.6294 -6.5824 0.0000 0.0000 -3.9738 3.9940 -3.8708 3.5527 0.0000 0.0000 -7.1811 7.9998 6.2759 -10.0113 0.0000 0.0000 -3.5439 -1.2680 -9.2509 0.4145 -0.9583 11.3500 1.1220 -39.3654 4.5678 -2.4715 50.4396 5.6266 -4.5830 31.4942 19.3812 -26.5741 0.0421 -24.2239 -0.0001 -18.0713 -0.0000 -8.5374 4.8740 -0.5594 -0.0000 0.0000 -0.0000 -0.0000 0.0000 -0.0000 -1.0326 -10.6358 -23.2400 -50.6110 -10.5650 33.0886 -0.0000 10.1755 0.0000 1.0271 2.6728 -15.1518 -0.0000 0.0000 -0.0000 -0.0000 0.0000 -0.0000
